<svg width="76" height="40" viewBox="0 0 76 40" fill="none" xmlns="http://www.w3.org/2000/svg">
<g id="logo">
<path id="Vector" d="M44.3473 15.5739V15.6248V15.6757V15.7266V15.7775L44.3987 15.8284V15.8793V15.9302V15.9811L44.4501 16.032V16.0829V16.1338V16.1847V16.2356V16.2865V16.3373H44.5014V16.3882V16.4391L45.4778 16.3373V16.2865V16.2356V16.1847V16.1338V16.0829L45.4264 16.032V15.9811V15.9302V15.8793V15.8284V15.7775L45.375 15.7266V15.6757V15.6248V15.5739L45.3236 15.523V15.4721V15.4212V15.3703V15.3194L45.2723 15.2686L44.2959 15.523V15.5739H44.3473Z" fill="#1D1D1B"/>
<path id="Vector_2" d="M44.9126 14.1998V14.1489V14.098L44.8612 14.0471V13.9962L44.8098 13.9453V13.8944V13.8435L44.7584 13.7926V13.7417H44.7071V13.6908L44.6557 13.64V13.5891L44.6043 13.5382V13.4873V13.4364L44.5529 13.3855V13.3346H44.5015V13.2837L43.6279 13.7926V13.8435L43.6793 13.8944L43.7307 13.9453V13.9962V14.0471L43.7821 14.098L43.8335 14.1489V14.1998V14.2507L43.8849 14.3016V14.3525L43.9363 14.4034V14.4543V14.5052H43.9876V14.5561V14.607L44.039 14.6579L44.964 14.2507L44.9126 14.1998Z" fill="#1D1D1B"/>
<path id="Vector_3" d="M43.8845 12.3674L43.8331 12.3165V12.2656L43.7818 12.2147L43.7304 12.1638L43.679 12.113V12.0621L43.6276 12.0112H43.5762V11.9603L43.5248 11.9094L43.4734 11.8585L43.422 11.8076L43.3707 11.7567V11.7058H43.3193L43.2679 11.6549V11.604H43.2165L42.4971 12.2656V12.3165H42.5485L42.5998 12.3674V12.4183H42.6512V12.4692L42.7026 12.5201H42.754V12.571L42.8054 12.6219L42.8568 12.6728L42.9082 12.7237V12.7746L42.9596 12.8255L43.0109 12.8764L43.0623 12.9273L43.1137 12.9782L43.9359 12.4183L43.8845 12.3674Z" fill="#1D1D1B"/>
<path id="Vector_4" d="M42.446 10.8407H42.3947L42.3433 10.7898L42.2919 10.7389L42.2405 10.688H42.1891L42.1377 10.6371L42.0863 10.5862L42.035 10.5353H41.9836L41.9322 10.4845L41.8808 10.4336H41.8294L41.778 10.3827L41.7266 10.3318L41.6752 10.2809H41.6239L41.5725 10.23L41.0586 11.0952L41.11 11.1461H41.1614L41.2128 11.197L41.2641 11.2479H41.3155V11.2988H41.3669L41.4183 11.3497H41.4697V11.4006H41.5211L41.5725 11.4515L41.6239 11.5024L41.6752 11.5532L41.7266 11.6041H41.778V11.655H41.8294L42.446 10.8916V10.8407Z" fill="#1D1D1B"/>
<path id="Vector_5" d="M39.4657 10.3317L39.5171 10.3826H39.5685L39.6198 10.4335H39.6712H39.7226L39.774 10.4844H39.8254L39.8768 10.5353H39.9282H39.9796V10.5862H40.0309H40.0823L40.1337 10.6371H40.1851L40.6476 9.72101H40.5962H40.5448L40.4934 9.67012H40.442L40.3907 9.61922H40.3393H40.2879L40.2365 9.56833H40.1851H40.1337V9.51743H40.0823L40.0309 9.46654H39.9796H39.9282L39.8768 9.41564H39.8254H39.774L39.7226 9.36475H39.6712H39.6198L39.3115 10.3317H39.3629H39.4143H39.4657Z" fill="#1D1D1B"/>
<path id="Vector_6" d="M37.5642 9.97579L37.6156 10.0267H37.667H37.7184H37.7697H37.8211H37.8725H37.9239H37.9753H38.0267H38.0781L38.1295 10.0776H38.1808H38.2322H38.2836H38.335H38.3864L38.5919 9.11058H38.5406H38.4892H38.4378L38.3864 9.05968H38.335H38.2836H38.2322H38.1808H38.1295H38.0781L38.0267 9.00879H37.9753H37.9239H37.8725H37.8211H37.7697H37.7184H37.667H37.6156H37.5642H37.5128L37.4614 9.97579H37.5128H37.5642Z" fill="#1D1D1B"/>
<path id="Vector_7" d="M51.0789 15.6246V15.7264V15.7773V15.8282V15.93V15.9809V16.0318L51.0275 16.1336V16.1845V16.2863V16.3372V16.4389L50.9761 16.4898V16.5916H52.6205V16.4898V16.388L52.6719 16.3372V16.2354V16.1336V16.0318V15.9809V15.8791V15.7773L52.7232 15.6755V15.6246L51.0789 15.5737V15.6246Z" fill="#1D1D1B"/>
<path id="Vector_8" d="M50.8219 12.6219V12.7237V12.8255L50.8733 12.8764V12.9782V13.0799L50.9247 13.1308V13.2326V13.3344V13.3853L50.9761 13.4871V13.5889V13.6398V13.7416V13.8434L51.0274 13.9452V13.996V14.0978L52.6204 13.9452V13.8434V13.7416V13.6398L52.5691 13.538V13.4362V13.3853V13.2835L52.5177 13.1817V13.0799V12.9782V12.8764L52.4663 12.7746V12.6728V12.6219L52.4149 12.5201V12.4183L52.3635 12.3165V12.2656L50.7705 12.6219H50.8219Z" fill="#1D1D1B"/>
<path id="Vector_9" d="M49.8457 9.7212L49.8971 9.82299V9.87389L49.9485 9.97568L49.9999 10.0266V10.1284L50.0513 10.1793L50.1026 10.281V10.3319L50.154 10.4337L50.2054 10.4846V10.5864L50.2568 10.6882V10.7391L50.3082 10.8409V10.8918L50.3596 10.9936V11.0445L50.411 11.1463L51.9526 10.6373L51.9012 10.5864V10.4846L51.8498 10.3828L51.7984 10.281V10.2302L51.747 10.1284V10.0266L51.6956 9.92478L51.6442 9.87389V9.7721L51.5929 9.67031L51.5415 9.56852V9.51762L51.4901 9.41583L51.4387 9.31404L51.3873 9.26315V9.16136L51.3359 9.05957L49.8457 9.7212Z" fill="#1D1D1B"/>
<path id="Vector_10" d="M48.3037 7.1252L48.3551 7.22699L48.4065 7.27789L48.4579 7.32878L48.5093 7.43057L48.5606 7.48147L48.612 7.53236L48.6634 7.63415L48.7148 7.68505L48.7662 7.73594L48.8176 7.83773V7.88863L48.869 7.99042L48.9204 8.04131L48.9717 8.09221L49.0231 8.194L49.0745 8.24489L49.1259 8.29578V8.39758L50.5134 7.58326V7.48147L50.462 7.43057L50.4106 7.32878L50.3592 7.27789L50.3078 7.1761L50.2564 7.07431L50.205 7.02341L50.1537 6.92163L50.1023 6.87073L50.0509 6.76894L49.9995 6.71805L49.9481 6.61626L49.8967 6.56536L49.8453 6.46357L49.7939 6.41268L49.7426 6.31089L49.6398 6.25999L49.5884 6.2091V6.1582L48.3037 7.1252Z" fill="#1D1D1B"/>
<path id="Vector_11" d="M46.2996 4.9877L46.4023 5.08949L46.4537 5.14039L46.5051 5.19128L46.5565 5.24218L46.6079 5.29307L46.7106 5.34397L46.762 5.39486L46.8134 5.44576L46.8648 5.49665L46.9162 5.59844L46.9676 5.64934L47.0704 5.70023L47.1217 5.75112L47.1731 5.80202L47.2245 5.85291L47.2759 5.9547H47.3273L48.5092 4.88591L48.4578 4.83502L48.4064 4.78412L48.355 4.68233L48.2523 4.63144L48.2009 4.58054L48.1495 4.47875L48.0467 4.42786L47.9953 4.37696L47.9439 4.32607L47.8926 4.22428L47.7898 4.17339L47.7384 4.12249L47.687 4.0716L47.5842 3.96981L47.5328 3.91891L47.4815 3.86802L47.3787 3.81712L47.3273 3.76623L47.2759 3.71533L46.1968 4.93681H46.2482L46.2996 4.9877Z" fill="#1D1D1B"/>
<path id="Vector_12" d="M43.782 3.25769L43.8334 3.30858H43.9361L43.9875 3.35948L44.0903 3.41037L44.1417 3.46127L44.1931 3.51216L44.2958 3.56306H44.3472L44.45 3.61395L44.5014 3.66485L44.5528 3.71574L44.6556 3.76664L44.7069 3.81753L44.8097 3.86843L44.8611 3.91932L44.9125 3.97022H45.0153L45.8888 2.64695L45.8375 2.59606L45.7347 2.54516L45.6833 2.49427L45.5805 2.44337L45.5291 2.39248L45.4264 2.34158L45.375 2.29069L45.2722 2.23979H45.2208L45.118 2.1889L45.0153 2.138L44.9639 2.08711L44.8611 2.03621L44.8097 1.98532L44.7069 1.93442L44.6042 1.88353L44.5528 1.83263L44.45 1.78174L43.6792 3.20679L43.782 3.25769Z" fill="#1D1D1B"/>
<path id="Vector_13" d="M41.0072 2.1378H41.11L41.1614 2.18869H41.2641L41.3669 2.23959H41.4183L41.5211 2.29048H41.5724L41.6752 2.34138H41.778L41.8294 2.39227L41.9322 2.44317H41.9835L42.0863 2.49406H42.1377L42.2405 2.54496H42.2919L42.9085 1.06901H42.8057L42.7544 1.01811L42.6516 0.967217H42.5488L42.446 0.916322L42.3946 0.865427H42.2919L42.1891 0.814533H42.0863L42.0349 0.763638L41.9322 0.712743H41.8294L41.7266 0.661848H41.6752L41.5724 0.610953H41.4697L41.3669 0.560059H41.2641L40.853 2.0869H40.9558L41.0072 2.1378Z" fill="#1D1D1B"/>
<path id="Vector_14" d="M38.0264 1.62863H38.0777H38.1805H38.2833H38.3861H38.4374H38.5402L38.643 1.67953H38.6944H38.7972H38.8999H38.9513L39.0541 1.73042H39.1569H39.2596H39.311L39.3624 1.78132L39.6194 0.203579L39.568 0.152684H39.4652H39.3624H39.311L39.2083 0.10179H39.1055H39.0027H38.8999L38.7972 0.0508948H38.6944H38.5916H38.4888H38.3861L38.2833 0H38.2319H38.1291H38.0264H37.9236L37.8208 1.57774L37.9236 1.62863H38.0264Z" fill="#1D1D1B"/>
<path id="Vector_15" d="M47.79 15.7775V15.8284L47.8414 15.9302V15.9811V16.032V16.1338V16.1847V16.2356V16.3374L47.8928 16.3883V16.4392V16.541V16.5919H49.2803V16.4901V16.4392V16.3374V16.2865V16.1847V16.1338V16.032L49.2289 15.9811V15.8793V15.8284V15.7266V15.6757L49.1775 15.574V15.5231V15.4722L47.79 15.7266V15.7775Z" fill="#1D1D1B"/>
<path id="Vector_16" d="M47.1217 13.2837V13.3855L47.1731 13.4364V13.4873L47.2245 13.5382V13.5891L47.2759 13.6909V13.7418L47.3272 13.7927V13.8435V13.8944L47.3786 13.9962V14.0471L47.43 14.098V14.1489V14.2507L47.4814 14.3016V14.3525V14.4034L48.8689 14.0471V13.9453L48.8175 13.8944V13.7927L48.7661 13.7418V13.6909L48.7147 13.5891V13.5382L48.6633 13.4873V13.3855L48.6119 13.3346V13.2328V13.1819L48.5605 13.131L48.5092 13.0292V12.9783L48.4578 12.9274V12.8257L48.4064 12.7748V12.7239L48.355 12.6221L47.0703 13.1819V13.2328L47.1217 13.2837Z" fill="#1D1D1B"/>
<path id="Vector_17" d="M45.7862 10.9933L45.8376 11.0442L45.889 11.095L45.9404 11.1459V11.1968L45.9918 11.2477L46.0432 11.2986V11.3495L46.0946 11.4004L46.146 11.4513L46.1973 11.5022V11.604L46.2487 11.6549L46.3001 11.7058V11.7567L46.3515 11.8076L46.4029 11.8585V11.9094L46.4543 11.9603V12.0112L47.6876 11.2986V11.2477L47.6362 11.1968L47.5848 11.1459V11.095L47.5334 10.9933L47.482 10.9424L47.4306 10.8915L47.3793 10.8406V10.7388L47.3279 10.6879L47.2765 10.637L47.2251 10.5861V10.5352L47.1737 10.4843L47.1223 10.3825L47.0709 10.3316L47.0195 10.2807L46.9682 10.2298V10.1789L46.9168 10.128L46.8654 10.0771L45.7349 10.8915L45.7862 10.9424V10.9933Z" fill="#1D1D1B"/>
<path id="Vector_18" d="M45.8375 8.90645L45.7861 8.85556L45.7347 8.80466L45.6833 8.75377L45.6319 8.70288L45.5805 8.65198L45.5292 8.60109L45.4778 8.55019L45.4264 8.4993L45.375 8.4484L45.3236 8.39751L45.2722 8.34661L45.2208 8.29572L45.1694 8.24482L45.1181 8.19393L45.0667 8.14303L45.0153 8.09214L44.9639 8.04124L44.8611 7.99035L44.8097 7.93945L43.8848 9.00824L43.9362 9.05914L43.9875 9.11003H44.0389L44.0903 9.16093L44.1417 9.21182L44.1931 9.26272L44.2445 9.31361L44.2959 9.36451H44.3473L44.3986 9.4154V9.4663L44.45 9.51719L44.5014 9.56809L44.5528 9.61898L44.6042 9.66988H44.6556L44.707 9.72077L44.7583 9.77167L44.8097 9.82256L44.8611 9.87345V9.92435L45.8889 8.90645H45.8375Z" fill="#1D1D1B"/>
<path id="Vector_19" d="M42.805 6.61629H42.7536L42.6508 6.5654L42.5994 6.5145H42.548L42.4966 6.46361L42.3939 6.41271H42.3425L42.2911 6.36182H42.2397L41.623 7.63419H41.6744L41.7258 7.68508H41.7772L41.8286 7.73598H41.9314L41.9828 7.78687L42.0341 7.83777H42.0855L42.1369 7.88866H42.1883L42.2397 7.93956L42.2911 7.99045H42.3939L42.4452 8.04135H42.4966L42.548 8.09224L42.5994 8.14313H42.6508L42.7022 8.19403L42.7536 8.24492H42.805L43.5758 7.07434L43.5244 7.02345L43.4216 6.97255H43.3702L43.3188 6.92166L43.2674 6.87076H43.216L43.1133 6.81987L43.0619 6.76898L43.0105 6.71808H42.9077L42.8563 6.66719L42.805 6.61629Z" fill="#1D1D1B"/>
<path id="Vector_20" d="M39.5161 5.4967L39.4133 5.4458H39.3619L39.105 6.81996H39.1564L39.2078 6.87086H39.3105H39.3619H39.4133L39.4647 6.92175H39.5675H39.6189L39.6702 6.97265H39.7216H39.8244L39.8758 7.02354H39.9272H39.9786L40.0813 7.07443H40.1327H40.1841L40.2355 7.12533H40.3383H40.3897V7.17622L40.8521 5.80206H40.8008H40.7494L40.6466 5.75117H40.5952L40.5438 5.70027H40.441H40.3897L40.2869 5.64938H40.2355H40.1841L40.0813 5.59849H40.03L39.9272 5.54759H39.8758H39.773L39.7216 5.4967H39.6702H39.5675H39.5161Z" fill="#1D1D1B"/>
<path id="Vector_21" d="M39.4652 33.8955L39.3625 33.9973L39.3111 34.0991L39.2597 34.15L39.1569 34.2518L39.1055 34.3536L39.0541 34.4045L38.9514 34.5062L38.9 34.608L38.7972 34.6589L38.7458 34.7607L38.6944 34.8116L38.643 34.9134L38.5403 35.0152L38.4889 35.0661L38.4375 35.1679L39.6708 36.1349L39.7222 36.084L39.825 35.9822L39.8763 35.9313L39.9277 35.8295L40.0305 35.7786L40.0819 35.6768L40.1333 35.575L40.2361 35.5241L40.2874 35.4224L40.3388 35.3715L40.4416 35.2697L40.493 35.1679L40.5444 35.117L40.6471 35.0152L40.6985 34.9134L39.4652 33.8955Z" fill="#1D1D1B"/>
<path id="Vector_22" d="M41.4695 31.5036L41.3667 31.6054L41.3154 31.6563L41.2126 31.7581L41.1612 31.8599L41.0584 31.9617L41.007 32.0635L40.9043 32.1144L40.8529 32.2162L40.8015 32.318L40.6987 32.4198L40.6473 32.5215L40.5446 32.5724L40.4932 32.6742L41.7265 33.6921L41.7778 33.5903L41.8806 33.5394L41.932 33.4376L42.0348 33.3359L42.0862 33.2341L42.1889 33.1832L42.2403 33.0814L42.3431 32.9796L42.3945 32.8778L42.4973 32.776L42.5487 32.7251L42.6514 32.6233L42.7028 32.5215L42.7542 32.4706L41.5209 31.4019L41.4695 31.5036Z" fill="#1D1D1B"/>
<path id="Vector_23" d="M37.1015 7.73626C37.5639 6.87105 37.8723 6.26031 38.3861 5.3442L37.7695 4.12273L37.1528 2.95215L36.4848 4.17362L35.8682 5.3951C36.2793 6.20942 36.6904 6.92194 37.1015 7.73626Z" fill="#1D1D1B"/>
<path id="Vector_24" d="M29.2391 3.96961H29.2904L29.3418 3.91872L29.4446 3.86782L29.496 3.81693L29.5988 3.76603L29.6501 3.71514L29.7015 3.66424L29.8043 3.61335L29.8557 3.56246H29.9071L30.0099 3.51156L30.0612 3.46067L30.164 3.40977L30.2154 3.35888L30.3182 3.30798H30.3696L30.421 3.25709H30.4723L29.7015 1.83203H29.6501L29.5988 1.88293L29.496 1.93382L29.4446 1.98472L29.3418 2.03561L29.2391 2.08651L29.1877 2.1374L29.0849 2.1883L29.0335 2.23919H28.9307L28.8793 2.29008L28.7766 2.34098L28.7252 2.39187L28.6224 2.44277L28.5196 2.49366L28.4682 2.54456L28.3655 2.59545L28.3141 2.64635L28.2627 2.69724L29.1877 4.02051L29.2391 3.96961Z" fill="#1D1D1B"/>
<path id="Vector_25" d="M32.2203 11.757H32.2717L32.3231 11.7061L32.3744 11.6552H32.4258V11.6043H32.4772L32.5286 11.5534H32.58V11.5025L32.6314 11.4516H32.6828V11.4007H32.7342L32.7855 11.3498L32.8369 11.2989H32.8883L32.9397 11.248L32.9911 11.1971L32.4258 10.3828L32.3744 10.4337H32.3231V10.4846H32.2717L32.2203 10.5355H32.1689L32.1175 10.5864V10.6373H32.0661L32.0147 10.6882H31.9633L31.912 10.7391V10.79H31.8606L31.8092 10.8409H31.7578V10.8918L31.7064 10.9427H31.655L31.6036 10.9936V11.0444H31.5522L32.2203 11.8079V11.757Z" fill="#1D1D1B"/>
<path id="Vector_26" d="M31.4998 8.19366L31.5512 8.14276H31.6026L31.654 8.09187L31.7054 8.04097H31.8081L31.8595 7.99008H31.9109L31.9623 7.93918L32.0137 7.88829H32.0651L32.1165 7.83739H32.1678L32.2706 7.7865L32.322 7.7356H32.3734L32.4248 7.68471H32.4762L32.5276 7.63381H32.5789L32.6303 7.58292L32.0651 6.31055L32.0137 6.36144H31.9623L31.8595 6.41234H31.8081L31.7567 6.46323L31.654 6.51413H31.6026L31.5512 6.56502L31.4998 6.61592H31.397L31.3457 6.66681L31.2943 6.71771H31.2429L31.1401 6.7686L31.0887 6.8195L31.0373 6.87039H30.9859L30.8832 6.92129L30.8318 6.97218H30.7804L30.729 7.02307L31.4484 8.24455L31.4998 8.19366Z" fill="#1D1D1B"/>
<path id="Vector_27" d="M25.077 8.39746L25.1284 8.29567V8.24478L25.1798 8.19388L25.2312 8.09209L25.2826 8.0412L25.334 7.9903L25.3853 7.88851L25.4367 7.83762L25.4881 7.73583L25.5395 7.68493V7.63404L25.5909 7.53225L25.6423 7.48135L25.6937 7.43046L25.7451 7.32867L25.7964 7.27778L25.8478 7.22688L25.8992 7.17599L24.5632 6.20898V6.25988L24.5118 6.31077L24.4604 6.41256L24.409 6.46346L24.3576 6.56525L24.3062 6.61614L24.2034 6.71793L24.1521 6.76883L24.1007 6.87062L24.0493 6.92151L23.9979 7.0233L23.9465 7.0742L23.8951 7.17599L23.8437 7.27778V7.32867L23.7923 7.43046L23.741 7.48135L23.6896 7.58314L23.6382 7.63404L25.0256 8.44836L25.077 8.39746Z" fill="#1D1D1B"/>
<path id="Vector_28" d="M26.8753 6.00549L26.9267 5.95459L26.978 5.8528L27.0294 5.80191L27.0808 5.75101L27.1836 5.70012L27.235 5.64922L27.2864 5.59833L27.3377 5.49654L27.3891 5.44564L27.4405 5.39475L27.5433 5.34385L27.5947 5.29296L27.6461 5.24206L27.6975 5.19117L27.7488 5.14027L27.8516 5.08938L27.903 4.98759L27.9544 4.93669L26.9267 3.76611H26.8753L26.8239 3.81701L26.7725 3.8679L26.6697 3.9188L26.6183 3.96969L26.5669 4.07148L26.4642 4.12238L26.4128 4.17327L26.3614 4.22417L26.2586 4.32596L26.2072 4.37685L26.1558 4.42775L26.1045 4.47864L26.0017 4.58043L25.9503 4.63133L25.8989 4.68222L25.7961 4.78401L25.7447 4.8349L25.6934 4.8858V4.93669L26.8753 6.00549Z" fill="#1D1D1B"/>
<path id="Vector_29" d="M29.4453 9.82267V9.77178L29.4967 9.72089L29.5481 9.66999H29.5995L29.6509 9.6191L29.7023 9.5682L29.7537 9.51731L29.8051 9.46641L29.8564 9.41552L29.9078 9.36462H29.9592L30.0106 9.31373L30.062 9.26283L30.1134 9.21194V9.16104L30.1648 9.11015H30.2161L30.2675 9.05925L30.3189 9.00836L30.3703 8.95746L29.4967 7.88867L29.4453 7.93957H29.394L29.3426 7.99046L29.2912 8.04136L29.2398 8.09225L29.1884 8.14315L29.137 8.19404L29.0342 8.24494L28.9829 8.29583L28.9315 8.34673L28.8801 8.39762L28.8287 8.44852L28.7773 8.49941L28.7259 8.5503L28.6745 8.6012L28.6231 8.65209L28.5718 8.70299L28.5204 8.75388L28.469 8.80478L28.4176 8.85567H28.3662L29.394 9.87357L29.4453 9.82267Z" fill="#1D1D1B"/>
<path id="Vector_30" d="M31.9112 2.59585L31.9626 2.54496L32.0654 2.49406H32.1167L32.2195 2.44317H32.3223L32.3737 2.39227L32.4765 2.34138H32.5278L32.6306 2.29048H32.682L32.7848 2.23959H32.8876L32.9389 2.18869H33.0417L33.0931 2.1378H33.1959L33.2987 2.0869L32.8876 0.560059H32.8362L32.7334 0.610953H32.6306L32.5792 0.661848H32.4765L32.3737 0.712743H32.2709L32.2195 0.763638L32.1167 0.814533H32.014L31.9112 0.865428H31.8598L31.757 0.916322L31.6543 0.967217H31.5515L31.5001 1.01811L31.3973 1.06901H31.2946L31.2432 1.1199L31.8598 2.59585H31.9112Z" fill="#1D1D1B"/>
<path id="Vector_31" d="M34.7892 1.78132L34.8919 1.73042H34.9947H35.0461H35.1489L35.2516 1.67953H35.303H35.4058H35.5086H35.6114L35.6627 1.62863H35.7655H35.8683H35.9197H36.0225H36.1252H36.228H36.2794H36.3308L36.228 0H36.1252H36.0225H35.9197L35.8169 0.0508948H35.7141H35.6114H35.5086H35.4058L35.303 0.10179H35.2003H35.0975H35.0461L34.9433 0.152684H34.8406H34.7378H34.635L34.5322 0.203579L34.7892 1.78132Z" fill="#1D1D1B"/>
<path id="Vector_32" d="M35.6633 10.1285H35.7147H35.7661L35.8175 10.0776H35.8689H35.9202H35.9716H36.023H36.0744L36.1258 10.0267H36.1772H36.2286H36.2799H36.3313H36.3827H36.4341H36.4855H36.5369L36.4341 9.00879H36.3827H36.3313H36.2799H36.2286H36.1772L36.1258 9.05968H36.0744H36.023H35.9716H35.9202H35.8689H35.8175L35.7661 9.11058H35.7147H35.6633H35.6119H35.5605H35.5091L35.4578 9.16147H35.4064H35.355L35.6119 10.1285H35.6633Z" fill="#1D1D1B"/>
<path id="Vector_33" d="M33.9156 7.12533H33.967L34.0184 7.07444H34.0698H34.1725L34.2239 7.02354H34.2753H34.3267L34.4295 6.97265H34.4809H34.5323L34.5836 6.92175H34.6864H34.7378L34.7892 6.87086H34.8406H34.9434H34.9947L35.0461 6.81996H35.1489L34.892 5.4458H34.7892L34.7378 5.4967H34.635H34.5836H34.4809L34.4295 5.54759H34.3267H34.2753L34.2239 5.59849H34.1212L34.0698 5.64938H33.967H33.9156L33.8128 5.70027H33.7614H33.7101L33.6073 5.75117H33.5559L33.4531 5.80206L33.8642 7.12533H33.9156Z" fill="#1D1D1B"/>
<path id="Vector_34" d="M21.5317 15.879V15.9808V16.0317V16.1335V16.2352L21.5831 16.337V16.3879V16.4897V16.5915H23.2275V16.4897V16.4388L23.1761 16.337V16.2861V16.1844V16.1335V16.0826V15.9808V15.9299L23.1247 15.8281V15.7772V15.7263V15.6245L21.5317 15.7263V15.7772V15.879Z" fill="#1D1D1B"/>
<path id="Vector_35" d="M33.8131 10.7392H33.8645V10.6883H33.9158H33.9672L34.0186 10.6374H34.07L34.1214 10.5865H34.1728H34.2242L34.2756 10.5356H34.3269L34.3783 10.4847H34.4297H34.4811L34.5325 10.4338H34.5839L34.6353 10.3829H34.6866L34.3269 9.4668H34.2756H34.2242L34.1728 9.51769H34.1214L34.07 9.56859H34.0186H33.9672L33.9158 9.61948H33.8645H33.8131L33.7617 9.67038H33.7103L33.6589 9.72127H33.6075L33.5561 9.77217H33.5047L33.4534 9.82306H33.402L33.3506 9.87396L33.8131 10.7392Z" fill="#1D1D1B"/>
<path id="Vector_36" d="M30.4205 12.2148V12.2657L30.3691 12.3166L30.3177 12.3675L30.2663 12.4184V12.4692L30.215 12.5201V12.571H30.1636V12.6219L30.9858 13.1818L31.0372 13.1309V13.08L31.0885 13.0291L31.1399 12.9782V12.9273H31.1913V12.8764L31.2427 12.8255L31.2941 12.7746V12.7237L31.3455 12.6728H31.3969V12.6219H31.4483V12.571L31.4996 12.5201L31.551 12.4692L30.7802 11.8076V11.8585H30.7288L30.6774 11.9094V11.9603L30.6261 12.0112H30.5747V12.0621L30.5233 12.113L30.4719 12.1639L30.4205 12.2148Z" fill="#1D1D1B"/>
<path id="Vector_37" d="M30.1126 14.8105L30.164 14.7596V14.7087L30.2154 14.6578V14.6069V14.556L30.2667 14.5051V14.4542L30.3181 14.4033V14.3524V14.3015H30.3695V14.2506V14.1997L30.4209 14.1488V14.0979H30.4723V14.047V13.9961L29.5987 13.5381L29.5473 13.589V13.6399L29.4959 13.6908V13.7417L29.4446 13.7926V13.8435L29.3932 13.8943V13.9452V13.9961L29.3418 14.047V14.0979L29.2904 14.1488V14.1997V14.2506L29.239 14.3015V14.3524L29.1876 14.4033V14.4542L29.1362 14.5051L30.1126 14.8614V14.8105Z" fill="#1D1D1B"/>
<path id="Vector_38" d="M35.6115 35.2703L35.5601 35.1685L35.5087 35.0667L35.406 35.0158L35.3546 34.914L35.3032 34.8631L35.2004 34.7614L35.149 34.6596L35.0976 34.6087L35.0462 34.5069L34.9435 34.4051L34.8921 34.3542L34.8407 34.2524L34.7379 34.1506L34.6865 34.0997L34.6351 34.0488L33.4019 35.0667L33.5046 35.1685L33.556 35.2703L33.6074 35.3212L33.7102 35.423L33.7616 35.5248L33.813 35.5757L33.9157 35.6775L33.9671 35.7793L34.0185 35.8301L34.1213 35.9319L34.1727 35.9828L34.224 36.0846L34.2754 36.1864L34.3782 36.2373V36.2882L35.6629 35.3212L35.6115 35.2703Z" fill="#1D1D1B"/>
<path id="Vector_39" d="M33.6077 32.7762L33.5049 32.6744L33.4536 32.5726L33.4022 32.5217L33.2994 32.4199L33.248 32.3181L33.1452 32.2163L33.0938 32.1654L32.9911 32.0636L32.9397 31.9618L32.8369 31.8601L32.7855 31.7583L32.7341 31.7074L32.6314 31.6056V31.5547L31.3467 32.5726L31.3981 32.6235L31.4495 32.6744L31.5522 32.7762L31.6036 32.878L31.655 32.9797L31.7578 33.0815L31.8092 33.1324L31.9119 33.2342L31.9633 33.336L32.0661 33.4378L32.1175 33.5396L32.2203 33.5905L32.2716 33.6923L32.323 33.7941H32.3744L33.6077 32.8271V32.7762Z" fill="#1D1D1B"/>
<path id="Vector_40" d="M23.176 14.0982L23.2274 13.9964V13.9455V13.8437V13.7419V13.6402L23.2788 13.5893V13.4875V13.3857V13.3348V13.233L23.3302 13.1312V13.0803V12.9785L23.3816 12.8767V12.8258V12.7241L23.4329 12.6732L21.8399 12.3169L21.7886 12.4187V12.5205V12.6223L21.7372 12.6732V12.7749V12.8767L21.6858 12.9785V13.0803V13.1821V13.2839L21.6344 13.3857V13.4366V13.5384V13.6402L21.583 13.7419V13.8437V13.9455V13.9964L23.176 14.1491V14.0982Z" fill="#1D1D1B"/>
<path id="Vector_41" d="M35.4058 37.5605L35.4571 37.6114L37.1015 39.5963L38.7973 37.5605L37.1015 36.0337L35.4058 37.5605Z" fill="#1D1D1B"/>
<path id="Vector_42" d="M37.101 31.4019L36.3815 32.318L35.6621 33.2341L36.3815 34.2011L37.101 35.1172L37.8204 34.2011L38.5398 33.2341L37.8204 32.318L37.1523 31.4019H37.101Z" fill="#1D1D1B"/>
<path id="Vector_43" d="M25.0261 15.4214V15.5232V15.5741V15.6759L24.9747 15.7268V15.8285V15.8794V15.9812V16.0321V16.1339L24.9233 16.1848V16.2866V16.3375V16.4393V16.4902V16.592H26.3108L26.3622 16.5411V16.4393V16.3884V16.3375V16.2357V16.1848V16.1339V16.0321L26.4136 15.9812V15.9303V15.8285V15.7777V15.7268L26.465 15.625L25.0261 15.4214Z" fill="#1D1D1B"/>
<path id="Vector_44" d="M23.7926 11.1461L23.844 11.0444V10.9935L23.8954 10.8917V10.8408L23.9468 10.739L23.9981 10.6881V10.5863L24.0495 10.4845V10.4336L24.1009 10.3318L24.1523 10.2809V10.1791L24.2037 10.1282V10.0265L24.2551 9.97556L24.3065 9.87377V9.82288L24.3579 9.77198L22.8676 9.11035V9.16125L22.8162 9.26304L22.7648 9.31393L22.7135 9.41572V9.51751L22.6621 9.5684L22.6107 9.67019V9.77198L22.5593 9.87377L22.5079 9.92467V10.0265L22.4565 10.1282L22.4051 10.23V10.2809L22.3538 10.3827V10.4845L22.3024 10.5863L22.251 10.6372V10.6881L23.7926 11.197V11.1461Z" fill="#1D1D1B"/>
<path id="Vector_45" d="M27.8007 11.9095L27.8521 11.8586V11.8077L27.9034 11.7568L27.9548 11.7059V11.655L28.0062 11.6041L28.0576 11.5023V11.4514L28.109 11.4005L28.1604 11.3496L28.2118 11.2987V11.2478L28.2632 11.1969L28.3145 11.1461V11.0952L28.3659 11.0443L28.4173 10.9934L28.4687 10.9425V10.8916L28.5201 10.8407L27.3896 10.0264H27.3382V10.1282L27.2868 10.1791L27.2354 10.2299L27.184 10.2808L27.1326 10.3317L27.0813 10.3826V10.4844L27.0299 10.5353L26.9785 10.5862L26.9271 10.6371L26.8757 10.688V10.7389L26.8243 10.8407L26.7729 10.8916L26.7215 10.9425V10.9934L26.6702 11.0952L26.6188 11.1461L26.5674 11.1969V11.2478L27.8007 11.9604V11.9095Z" fill="#1D1D1B"/>
<path id="Vector_46" d="M26.7218 14.3526L26.7732 14.3017V14.2508V14.149L26.8246 14.0981V14.0472L26.876 13.9963V13.8946V13.8437L26.9274 13.7928V13.7419L26.9787 13.691V13.5892L27.0301 13.5383V13.4874V13.4365L27.0815 13.3856V13.2838L27.1329 13.2329V13.182L27.1843 13.1311L25.8996 12.5713L25.8482 12.6222L25.7968 12.724V12.7749L25.7455 12.8258V12.9276L25.6941 12.9784V13.0293L25.6427 13.1311V13.182L25.5913 13.2329V13.3347L25.5399 13.3856V13.4874L25.4885 13.5383V13.5892L25.4371 13.691V13.7419V13.7928L25.3857 13.8946V13.9454V13.9963L26.7218 14.3526Z" fill="#1D1D1B"/>
<path id="Vector_47" d="M29.7015 16.5408V16.49L29.7528 16.4391V16.3882V16.3373V16.2864V16.2355V16.1846V16.1337L29.8042 16.0828V16.0319V15.981V15.9301V15.8792L29.8556 15.8283V15.7774V15.7265L28.8793 15.5229V15.5738L28.8279 15.6247V15.6756V15.7265V15.7774V15.8283L28.7765 15.8792V15.9301V15.981V16.0319V16.0828V16.1337L28.7251 16.1846V16.2355V16.2864V16.3373V16.3882V16.4391V16.49V16.5408V16.5917H29.7015V16.5408Z" fill="#1D1D1B"/>
<path id="Vector_48" d="M74.5628 24.1748L71.1198 21.5282C70.6574 21.172 70.4518 20.7139 70.4518 20.2559C70.4518 19.0853 71.5309 18.5763 72.5587 18.5763C73.535 18.5763 74.46 18.9326 74.46 20.0523H74.6656L74.6142 18.2201H74.0489C73.5864 18.1183 73.0726 18.0674 72.4559 18.0674C71.4282 18.0674 70.4518 18.4236 69.8866 19.2889C69.2699 20.2559 69.4755 21.63 70.349 22.3934L73.792 24.9891C74.2031 25.3453 74.4086 25.8034 74.4086 26.3632C74.4086 27.6865 73.1753 28.2463 71.9934 28.2463C70.5546 28.2463 69.5268 27.3302 69.7324 25.8543H69.5268C69.3727 26.2614 69.3213 26.7195 69.3213 27.1267C69.3213 27.5338 69.3213 27.8392 69.3727 27.941C70.0407 28.5517 71.4282 28.7553 72.3531 28.7553C73.9461 28.7553 75.385 27.6356 75.385 26.007C75.385 25.1927 75.0767 24.5819 74.5628 24.1748Z" fill="#1D1D1B"/>
<path id="Vector_49" d="M56.9371 28.0432C56.7316 27.8905 56.5774 27.636 56.5774 27.3815V19.3402C56.5774 19.0857 56.7316 18.8821 56.9371 18.7294C57.2455 18.4749 57.5538 18.4749 57.9649 18.4749V18.3223H54.1108V18.4749C54.5219 18.4749 54.8303 18.4749 55.1386 18.7294C55.3441 18.933 55.4983 19.1366 55.4983 19.3911V27.3815C55.4983 27.9414 54.8816 28.2976 54.3678 28.2976H54.1108V28.4503H58.0163V28.2976C57.5538 28.2976 57.2455 28.2976 56.9371 28.0432Z" fill="#1D1D1B"/>
<path id="Vector_50" d="M51.3359 27.0763C51.0789 26.8218 50.7706 26.4147 50.3595 25.9057C49.9484 25.3968 49.7429 25.1423 49.7429 25.1423C49.229 24.4298 48.7665 23.9717 48.4068 23.819C49.9998 23.6663 51.0789 22.4958 51.0789 20.918C51.0789 18.984 49.2804 18.2715 47.5846 18.2715H43.2681V18.4242H43.525C44.0389 18.4242 44.5014 18.7804 44.5014 19.2894V27.3308C44.5014 27.5852 44.3986 27.7888 44.193 27.9924C43.8847 28.2469 43.6278 28.2469 43.2681 28.2469V28.3996H46.7624V28.2469C46.5055 28.2469 46.2999 28.2469 46.043 28.1451C45.7347 27.9415 45.5805 27.687 45.5805 27.3308V18.8313H46.5055C47.4304 18.8313 48.4582 18.7804 49.229 19.4421C50.0512 20.2055 49.9998 21.6305 49.4345 22.5466C49.2804 22.7502 49.0234 22.9538 48.6637 23.1574C48.4068 23.3101 47.5846 23.361 46.2485 23.361V23.5137C47.3277 23.5137 48.2012 24.9896 48.8179 25.8039C49.4345 26.6691 49.8456 27.3817 50.7706 27.9924C51.5414 28.5522 52.5178 28.5013 53.4427 28.5013V28.3487C52.415 28.2978 51.9011 27.7379 51.3359 27.0763Z" fill="#1D1D1B"/>
<path id="Vector_51" d="M42.0862 18.4242V16.2866C41.9834 16.3375 41.7779 16.3884 41.4182 16.4902C41.0584 16.592 40.596 16.6429 40.0307 16.6429H34.2239C33.6587 16.6429 32.6823 16.5411 32.1685 16.3375V18.4751H32.3226V18.1697C32.3226 17.6099 32.7337 17.1518 33.299 17.1518H36.5364V27.3308C36.5364 27.6362 36.4336 27.8397 36.1767 28.0433C35.8683 28.3487 35.6114 28.3487 35.2003 28.3487V28.5014H38.9516V28.3487H38.746C38.1294 28.3487 37.6669 27.8906 37.6669 27.2799V17.1009H40.9043C41.4695 17.1009 41.8806 17.559 41.8806 18.1188V18.4242H42.0862Z" fill="#1D1D1B"/>
<path id="Vector_52" d="M63.8749 18.2715H59.8667V18.4242H60.1236C60.6375 18.4242 61.1 18.7804 61.1 19.3403V27.3817C61.1 27.6361 60.9972 27.8397 60.7917 28.0433C60.4833 28.2978 60.2264 28.2978 59.8667 28.2978V28.4504H63.4124V28.2978C63.1555 28.2978 62.9499 28.2978 62.693 28.196C62.3847 28.0433 62.2305 27.7379 62.1791 27.3817V18.7804H63.8235C65.2624 18.7804 66.547 19.4421 66.547 21.0198C66.547 21.427 66.4956 21.7323 66.4443 21.9359C66.2387 22.5466 65.879 23.0556 65.3651 23.3101C64.6971 23.7681 63.618 23.819 62.8472 23.6154V23.7681C63.4124 24.0226 64.0291 24.1753 64.6457 24.1753C66.4956 24.1753 67.7803 22.9538 67.7803 21.1216C67.7803 19.0349 65.7248 18.2715 63.8749 18.2715Z" fill="#1D1D1B"/>
<path id="Vector_53" d="M37.6151 29.621C37.6151 29.1121 37.2554 28.9594 36.7415 29.2139C32.7847 31.3006 29.4959 27.8906 26.5669 23.1065L29.3418 19.2894C29.5473 19.0349 29.8042 18.8313 30.0612 18.6786C30.4723 18.4242 30.7806 18.4242 31.1917 18.4242V18.2715H27.389V18.4242C27.646 18.4242 27.9029 18.4242 28.1085 18.6786C28.2626 18.8822 28.3654 19.0858 28.1599 19.3403L26.1044 22.4449L23.9461 19.3403C23.7919 19.0858 23.8433 18.9331 23.9975 18.6786C24.1517 18.4242 24.46 18.4242 24.7169 18.4242V18.2715H20.7087V18.4242H20.9143C21.5309 18.4242 22.1989 18.7804 22.5587 19.2894L25.4363 23.4119L22.2503 27.4834C21.6851 28.1451 21.2226 28.2978 20.4004 28.2978V28.4504H24.1517V28.2978C23.8947 28.2978 23.5864 28.2978 23.4322 28.0433C23.2781 27.7888 23.1753 27.5852 23.3808 27.3308L25.8988 23.9717C30.7806 30.9952 37.6665 31.555 37.6151 29.621Z" fill="#1D1D1B"/>
<path id="Vector_54" d="M4.88178 27.9413H2.4152V17.8133C2.4152 17.6097 2.46659 17.457 2.56936 17.2534C2.87768 16.7445 3.23739 16.7445 3.75127 16.7445V16.5918H0V16.7445H0.205549C0.822195 16.7445 1.28468 17.2025 1.28468 17.8133V27.2288C1.28468 27.8396 0.770808 28.2976 0.205549 28.2976H0V28.4503H7.09143L8.06779 25.702H7.91363C7.34837 27.1779 6.52617 27.9413 4.88178 27.9413Z" fill="#1D1D1B"/>
<path id="Vector_55" d="M17.0607 18.4749H17.3177C17.7802 18.4749 18.1399 18.7803 18.1399 19.1875V24.8877C18.1399 26.9744 16.8038 28.2468 14.6969 28.2468C12.4873 28.2468 11.4595 26.7708 11.4595 24.6841V19.1875C11.4595 18.9839 11.5623 18.8312 11.7165 18.6785C11.9734 18.4241 12.2303 18.4749 12.5387 18.4749V18.3223H9.30127V18.4749C9.60959 18.4749 9.86653 18.475 10.1235 18.6785C10.2776 18.8312 10.3804 18.9839 10.3804 19.1875V24.8877C10.3804 27.4324 12.2303 28.7048 14.6455 28.7048C17.0607 28.7048 18.9107 27.4324 18.9107 24.8877V19.1875C18.9107 19.0348 18.9621 18.933 19.0135 18.8312C19.2704 18.475 19.5787 18.4749 19.9898 18.4749V18.3223H17.0607V18.4749Z" fill="#1D1D1B"/>
</g>
</svg>
